# xmcd
#
# Track frame offsets:
#  150
#  18725
#  36086
#  56922
#  72658
#  87172
#  112671
#  129823
#  145929
#  165193
#  185014
#  197429
#
# Disc length: 2939 seconds
#
# Revision: 0
# Processed by: cddbd v1.4PL0 Copyright (c) Steve Scherf et al.
# Submitted via: AltoMP3_Maker 3.0
#
DISCID=9e0b790c
DTITLE=Dub Miller - American Troubadour
DYEAR=1900
DGENRE=
TTITLE0=These Old Boots
TTITLE1=Livin' On Lone Star Time
TTITLE2=Coming Home To You
TTITLE3=Paint Me On Velvet
TTITLE4=The Dancer
TTITLE5=Postcard From Paris
TTITLE6=Nine Miles North of Mason
TTITLE7=Miles and Memories
TTITLE8=End of Story
TTITLE9=It's Alright
TTITLE10=Truck Driving Man
TTITLE11=Paying the Fiddler
EXTD=
EXTT0=
EXTT1=
EXTT2=
EXTT3=
EXTT4=
EXTT5=
EXTT6=
EXTT7=
EXTT8=
EXTT9=
EXTT10=
EXTT11=
PLAYORDER=
